<svg xmlns="http://www.w3.org/2000/svg" version="1.1" xmlns:xlink="http://www.w3.org/1999/xlink" xmlns:svgjs="http://svgjs.dev/svgjs" width="2000" height="1999" viewBox="0 0 2000 1999"><g transform="matrix(1,0,0,1,-0.431486880466764,-0.4312711370263287)"><svg viewBox="0 0 343 343" data-background-color="#020202" preserveAspectRatio="xMidYMid meet" height="1999" width="2000" xmlns="http://www.w3.org/2000/svg" xmlns:xlink="http://www.w3.org/1999/xlink"><g id="tight-bounds" transform="matrix(1,0,0,1,0.0740000000000407,0.07400000000001228)"><svg viewBox="0 0 342.85155851775386 342.85155851775386" height="342.85155851775386" width="342.85155851775386"><g><svg></svg></g><g><svg viewBox="0 0 342.85155851775386 342.85155851775386" height="342.85155851775386" width="342.85155851775386"><g><path d="M0 171.426c0-94.676 76.75-171.426 171.426-171.426 94.676 0 171.426 76.75 171.426 171.426 0 94.676-76.75 171.426-171.426 171.426-94.676 0-171.426-76.75-171.426-171.426zM171.426 325.879c85.302 0 154.454-69.151 154.453-154.453 0-85.302-69.151-154.454-154.453-154.454-85.302 0-154.454 69.151-154.454 154.454 0 85.302 69.151 154.454 154.454 154.453z" data-fill-palette-color="tertiary" fill="#915eff" stroke="transparent"></path><ellipse rx="164.56874808852186" ry="164.56874808852186" cx="171.42577925887693" cy="171.42577925887693" fill="#915eff" stroke="transparent" stroke-width="0" fill-opacity="1" data-fill-palette-color="tertiary"></ellipse></g><g transform="matrix(1,0,0,1,64.84655864529837,77.32554158984263)"><svg viewBox="0 0 213.1584412271571 188.2004753380686" height="188.2004753380686" width="213.1584412271571"><g><svg viewBox="0 0 213.1584412271571 188.2004753380686" height="188.2004753380686" width="213.1584412271571"><g><svg viewBox="0 0 213.1584412271571 188.2004753380686" height="188.2004753380686" width="213.1584412271571"><g><svg viewBox="0 0 213.1584412271571 188.2004753380686" height="188.2004753380686" width="213.1584412271571"><g><svg viewBox="0 0 213.1584412271571 188.2004753380686" height="188.2004753380686" width="213.1584412271571"><g><svg viewBox="0 0 213.1584412271571 188.2004753380686" height="188.2004753380686" width="213.1584412271571"><g transform="matrix(1,0,0,1,0,0)"><svg width="213.1584412271571" viewBox="-3.27 -50.39 71.72999999999999 63.33" height="188.2004753380686" data-palette-color="#ffffff"><path d="M68.46 10.94L68.46 10.94Q68.46 11.47 68.21 11.96L68.21 11.96Q67.24 12.5 66.19 12.72 65.14 12.94 64.11 12.94L64.11 12.94Q63.62 12.94 63.06 12.92 62.5 12.89 62.06 12.79L62.06 12.79Q61.91 12.74 61.72 12.6 61.52 12.45 61.33 12.45L61.33 12.45Q60.84 12.45 60.4 12.62 59.96 12.79 59.47 12.79L59.47 12.79Q59.23 12.79 59.01 12.65 58.79 12.5 58.54 12.45L58.54 12.45Q58.2 12.35 57.86 12.4 57.52 12.45 57.13 12.45L57.13 12.45Q56.59 12.45 56.18 12.3 55.76 12.16 55.42 11.77L55.42 11.77Q54.2 11.62 53.03 11.3 51.86 10.99 50.68 10.62 49.51 10.25 48.34 9.94 47.17 9.62 45.95 9.52L45.95 9.52Q45.65 9.18 45.26 9.01 44.87 8.84 44.68 8.45L44.68 8.45Q44.43 8.45 44.34 8.52 44.24 8.59 43.99 8.59L43.99 8.59Q43.16 7.91 42.21 7.42 41.26 6.93 40.26 6.49 39.26 6.05 38.31 5.59 37.35 5.13 36.52 4.39L36.52 4.39 36.28 4.39Q35.89 4.44 35.62 4.22 35.35 4 34.96 4L34.96 4Q34.72 4 34.57 4.05L34.57 4.05Q34.42 3.66 34.13 3.42 33.84 3.17 33.52 2.95 33.2 2.73 32.91 2.51 32.62 2.29 32.47 1.95L32.47 1.95Q31.25 1.51 30.1 0.9 28.96 0.29 28.08-0.68L28.08-0.68Q27.1-0.78 26.46-1.29 25.83-1.81 25.29-2.59L25.29-2.59Q24.12-2.98 23.14-3.61 22.17-4.25 21.22-4.93 20.26-5.62 19.21-6.18 18.16-6.74 16.85-6.98L16.85-6.98Q16.8-7.32 16.55-7.5 16.31-7.67 15.99-7.79 15.67-7.91 15.38-8.01 15.09-8.11 14.94-8.4L14.94-8.4Q14.79-8.4 14.65-8.42 14.5-8.45 14.36-8.45L14.36-8.45Q14.21-8.45 14.04-8.42 13.87-8.4 13.72-8.4L13.72-8.4 13.77-8.54Q13.77-8.74 13.65-8.79 13.53-8.84 13.33-8.89 13.13-8.94 12.99-9.03 12.84-9.13 12.84-9.47L12.84-9.47 12.7-9.47Q12.16-9.47 11.72-9.67 11.28-9.86 10.74-9.96L10.74-9.96Q10.64-9.42 10.64-8.94L10.64-8.94 10.64-8.06Q10.64-5.86 11.13-3.44 11.62-1.03 12.65 0.88L12.65 0.88Q13.67 1.27 14.4 1.9 15.14 2.54 15.82 3.37L15.82 3.37Q15.87 4.69 14.87 5.59 13.87 6.49 12.55 6.49L12.55 6.49Q11.82 6.49 11.21 6.13 10.6 5.76 10.21 5.08L10.21 5.08Q9.91 5.08 9.67 5.2 9.42 5.32 9.08 5.32L9.08 5.32Q8.94 5.32 8.79 5.27L8.79 5.27Q8.3 4.44 7.84 3.81 7.37 3.17 7.23 2.1L7.23 2.1Q6.69 1.86 6.57 1.22 6.45 0.59 6.01 0.2L6.01 0.2Q5.81-2 5.49-4.2 5.18-6.4 5.18-8.59L5.18-8.59Q5.18-9.08 5.22-9.59 5.27-10.11 5.32-10.64L5.32-10.64Q5.22-10.89 5.05-11.11 4.88-11.33 4.79-11.57L4.79-11.57Q3.81-11.33 2.76-11.11 1.71-10.89 0.63-10.89L0.63-10.89Q-0.05-10.89-1.03-11.11-2-11.33-2.54-11.72L-2.54-11.72Q-2.93-11.96-3.1-12.62-3.27-13.28-3.27-13.77L-3.27-13.77Q-3.27-14.6-2.98-15.45-2.69-16.31-2.2-16.94L-2.2-16.94Q0.2-17.92 2.27-19.34 4.35-20.75 6.35-22.41L6.35-22.41Q6.4-22.9 6.52-23.39 6.64-23.88 6.64-24.41L6.64-24.41Q6.64-25 6.35-25.54L6.35-25.54Q6.64-25.83 6.64-26.29 6.64-26.76 6.88-27.15L6.88-27.15 6.88-27.44Q6.88-27.64 6.86-27.83 6.84-28.03 6.69-28.22L6.69-28.22Q7.03-30.13 7.23-32.01 7.42-33.89 7.42-35.89L7.42-35.89Q7.42-36.04 7.59-36.69 7.76-37.35 7.81-37.6L7.81-37.6Q8.01-38.72 8.08-39.82 8.15-40.92 8.3-42.04L8.3-42.04Q8.35-42.43 8.5-43.07 8.64-43.7 8.64-43.95L8.64-43.95Q8.64-44.29 8.52-44.41 8.4-44.53 8.3-44.82L8.3-44.82Q8.59-45.95 8.62-47.09 8.64-48.24 8.79-49.37L8.79-49.37Q9.62-49.71 10.11-50.05 10.6-50.39 11.52-50.39L11.52-50.39 11.62-50.39Q11.72-49.8 12.06-49.29 12.4-48.78 12.77-48.27 13.13-47.75 13.43-47.29 13.72-46.83 13.72-46.39L13.72-46.39Q13.72-45.56 13.57-44.58 13.43-43.6 13.33-42.77L13.33-42.77Q13.09-40.58 12.89-38.45 12.7-36.33 12.3-34.13L12.3-34.13Q12.45-33.45 12.45-32.86L12.45-32.86Q12.45-31.98 12.3-31.1 12.16-30.22 12.16-29.3L12.16-29.3Q12.16-28.86 12.23-28.37 12.3-27.88 12.5-27.49L12.5-27.49Q14.16-27.93 15.48-29.3L15.48-29.3Q15.67-29.49 15.89-29.81 16.11-30.13 16.36-30.32L16.36-30.32Q16.85-30.71 17.41-31.03 17.97-31.35 18.51-31.69L18.51-31.69Q19.78-32.52 20.97-33.42 22.17-34.33 23.39-35.21L23.39-35.21Q27-37.84 30.4-40.7 33.79-43.55 37.01-46.73L37.01-46.73Q37.16-47.56 37.6-48.05 38.04-48.54 38.38-49.22L38.38-49.22Q39.31-49.56 39.99-50.24L39.99-50.24Q40.28-50.15 40.6-50.12 40.92-50.1 41.24-50.1 41.55-50.1 41.87-50.07 42.19-50.05 42.43-49.9L42.43-49.9Q42.48-49.17 42.58-48.58 42.68-48 43.16-47.46L43.16-47.46Q43.16-47.36 43.19-47.27 43.21-47.17 43.21-47.07L43.21-47.07Q43.21-46.53 42.92-46.19 42.63-45.85 42.58-45.36L42.58-45.36 40.04-42.82Q38.77-41.55 37.7-40.09L37.7-40.09Q37.3-40.04 37.01-39.84 36.72-39.65 36.45-39.43 36.18-39.21 35.89-39.01 35.6-38.82 35.25-38.72L35.25-38.72Q34.38-37.55 33.25-36.6 32.13-35.64 30.96-34.77 29.79-33.89 28.64-32.98 27.49-32.08 26.51-31.01L26.51-31.01Q25.49-30.52 24.54-29.86 23.58-29.2 23-28.22L23-28.22 22.75-28.22Q22.51-28.22 22.36-28.1 22.22-27.98 21.97-27.98L21.97-27.98Q19.34-25.68 16.5-23.66 13.67-21.63 11.08-19.24L11.08-19.24 11.08-18.02Q11.91-17.53 12.89-17.11 13.87-16.7 14.82-16.21 15.77-15.72 16.63-15.16 17.48-14.6 18.12-13.82L18.12-13.82Q18.21-13.87 18.36-13.87L18.36-13.87Q18.8-13.87 19.04-13.6 19.29-13.33 19.87-13.43L19.87-13.43Q20.07-12.65 20.75-12.3 21.44-11.96 22.12-11.72L22.12-11.72Q22.71-11.13 23.19-10.62 23.68-10.11 24.61-9.96L24.61-9.96Q24.71-9.77 24.76-9.52 24.8-9.28 24.95-9.08L24.95-9.08Q25.88-8.79 26.73-8.25 27.59-7.71 28.42-7.15 29.25-6.59 30.1-6.08 30.96-5.57 31.93-5.27L31.93-5.27Q32.08-4.79 32.5-4.59 32.91-4.39 33.15-4L33.15-4 34.03-4Q34.18-3.76 34.42-3.54 34.67-3.32 34.77-2.93L34.77-2.93Q35.16-2.83 35.64-2.66 36.13-2.49 36.52-2.25L36.52-2.25Q36.67-2.1 36.74-1.9 36.82-1.71 37.01-1.56L37.01-1.56Q37.3-1.32 37.92-1.2 38.53-1.07 38.96-0.83L38.96-0.83Q39.84-0.34 40.67 0.27 41.5 0.88 42.43 1.42L42.43 1.42 44.34 2.44Q44.82 2.69 45.24 2.98 45.65 3.27 46.09 3.52L46.09 3.52Q46.97 3.91 47.97 4.03 48.97 4.15 49.8 4.54L49.8 4.54Q50.05 4.69 50.15 4.91 50.24 5.13 50.49 5.27L50.49 5.27Q50.88 5.52 51.71 5.62 52.54 5.71 53.08 5.96L53.08 5.96Q53.76 6.25 54.42 6.52 55.08 6.79 55.76 7.18L55.76 7.18Q57.23 7.28 58.67 7.52 60.11 7.76 61.52 8.01 62.94 8.25 64.38 8.45 65.82 8.64 67.29 8.59L67.29 8.59Q67.29 8.69 67.41 8.72 67.53 8.74 67.63 8.74L67.63 8.74Q67.97 9.28 68.21 9.81 68.46 10.35 68.46 10.94Z" opacity="1" transform="matrix(1,0,0,1,0,0)" fill="#ffffff" class="undefined-text-0" data-fill-palette-color="quaternary" id="text-0"></path></svg></g></svg></g></svg></g></svg></g><g></g></svg></g></svg></g></svg></g></svg></g><defs></defs></svg><rect width="342.85155851775386" height="342.85155851775386" fill="none" stroke="none" visibility="hidden"></rect></g></svg></g></svg>